<svg width="68" height="68" viewBox="0 0 68 68" fill="none" xmlns="http://www.w3.org/2000/svg">
<g clip-path="url(#clip0_44_2)">
<path d="M34 68C52.7777 68 68 52.7777 68 34C68 15.2223 52.7777 0 34 0C15.2223 0 0 15.2223 0 34C0 52.7777 15.2223 68 34 68Z" fill="#DADADA"/>
<path d="M23.7889 21.9283C25.2193 24.4968 25.9131 27.9539 25.9131 32.3423C25.9131 35.5986 25.7184 38.9584 25.7184 41.9712C25.7184 47.303 26.6557 48.5872 28.0373 49.0316V50.5106C25.7184 50.8088 22.8029 51.101 20.1857 51.101C16.2843 51.101 15 49.1776 15 46.0187C15 39.7496 22.4073 27.8018 22.6021 22.6708L23.7889 21.9283ZM29.4677 39.4514C29.3216 38.7088 29.2181 37.8689 29.1207 37.035C27.0939 22.3726 24.1359 19.7067 21.1717 18.5685V17.2356C23.8376 16.493 27.2948 16 29.4677 16C34.3064 16 37.3193 18.2703 39.7356 32.5371C42.2067 46.95 43.1928 48.3864 44.97 49.3237V50.8027C42.3041 50.9488 40.4295 51.101 38.2566 51.101C34.2578 51.101 31.8414 49.768 30.2102 43.152C29.912 41.9164 29.2242 41.4234 28.3843 41.4234H27.9886C27.3982 41.4234 27.0026 41.0278 27.0026 40.4374C27.0026 39.847 27.3982 39.4514 27.9886 39.4514H29.4677Z" fill="#1D1D1B"/>
<path d="M37.1367 17.9842C37.9157 17.4303 39.4252 16.7486 40.8129 16.4017C45.8891 15.1296 51.2331 17.759 53.0286 24.9411C54.9032 32.4093 51.2513 38.161 43.9718 39.987C43.9718 39.987 43.3997 40.1331 42.858 40.2122L42.2615 38.8366C43.8379 36.8098 44.0997 33.9978 42.4928 27.5827C40.9347 21.3561 39.6139 19.7554 37.4958 19.4206L37.1367 17.9842Z" fill="#1D1D1B"/>
</g>
<defs>
<clipPath id="clip0_44_2">
<rect width="68" height="68" fill="white"/>
</clipPath>
</defs>
</svg>
